<svg xmlns="http://www.w3.org/2000/svg" width="16" height="11" viewBox="0 0 16 11"><defs><style>.a{fill:#bebebe;}</style></defs><title>mugsy-icon.svg</title><path class="a" d="M15.9,2.4A2.8,2.8,0,0,0,13.1,0H0V8.3a.7.7,0,0,0,.1.5A2.7,2.7,0,0,0,2.8,11h8A2.8,2.8,0,0,0,13,8.9a2.2,2.2,0,0,0,.1-.8V6h.7A2.9,2.9,0,0,0,15.9,2.4ZM2.3,3.5A1.3,1.3,0,0,1,3.7,2.2h0A1.3,1.3,0,0,1,5,3.5,1.3,1.3,0,0,1,3.6,4.8,1.3,1.3,0,0,1,2.3,3.5Zm8.3,4.3c-.4.6-1.8,1.4-4.1,1.4a5.6,5.6,0,0,1-4-1.3A.6.6,0,0,1,2.6,7a.6.6,0,0,1,.8.1A4.4,4.4,0,0,0,6.5,8a5.1,5.1,0,0,0,3.2-.9.6.6,0,0,1,.8-.1A.5.5,0,0,1,10.6,7.8Zm-1.2-3A1.3,1.3,0,0,1,8.1,3.5h0A1.3,1.3,0,0,1,9.4,2.2a1.3,1.3,0,0,1,1.4,1.3A1.3,1.3,0,0,1,9.4,4.8Zm3.7-.4V1.5a1.4,1.4,0,0,1,1.4,1.4A1.5,1.5,0,0,1,13.1,4.4Z"/></svg>