<?xml version="1.0" encoding="utf-8"?>
<!-- Generator: Adobe Illustrator 23.0.3, SVG Export Plug-In . SVG Version: 6.00 Build 0)  -->
<svg version="1.1" id="Layer_1" xmlns="http://www.w3.org/2000/svg" xmlns:xlink="http://www.w3.org/1999/xlink" x="0px" y="0px"
	 viewBox="0 0 16 16" style="enable-background:new 0 0 16 16;" xml:space="preserve">
<style type="text/css">
	.st0{fill:#FFFFFF;}
</style>
<title>mugsy-icon_2</title>
<path class="st0" d="M15.9,4.8c-0.2-1.4-1.4-2.4-2.8-2.4H0v8.3c0,0.2,0,0.4,0.1,0.5c0.2,1.3,1.4,2.2,2.7,2.2h8
	c1.1-0.2,1.9-1,2.2-2.1c0.1-0.3,0.1-0.5,0.1-0.8V8.4h0.7C15.4,8,16.3,6.4,15.9,4.8C15.9,4.8,15.9,4.8,15.9,4.8z M2.3,5.9
	c0-0.7,0.6-1.3,1.3-1.3c0,0,0.1,0,0.1,0l0,0C4.4,4.6,5,5.2,5,5.9l0,0c0,0.7-0.6,1.3-1.3,1.3c0,0-0.1,0-0.1,0
	C2.9,7.2,2.3,6.6,2.3,5.9L2.3,5.9z M10.6,10.2c-0.4,0.6-1.8,1.4-4.1,1.4c-1.4,0.1-2.9-0.4-4-1.3c-0.2-0.2-0.2-0.6,0-0.8
	c0,0,0,0,0.1-0.1c0.3-0.2,0.6-0.1,0.8,0.1c0.9,0.7,2,1,3.1,0.9c1.1,0.1,2.3-0.3,3.2-0.9c0.2-0.2,0.5-0.3,0.8-0.1
	c0.2,0.1,0.3,0.4,0.2,0.7C10.7,10.1,10.6,10.1,10.6,10.2z M9.4,7.2c-0.7,0-1.3-0.6-1.3-1.3c0,0,0,0,0,0l0,0c0-0.7,0.6-1.3,1.3-1.3
	c0.7-0.1,1.3,0.5,1.4,1.2c0,0,0,0.1,0,0.1c0,0.7-0.6,1.3-1.3,1.3C9.5,7.2,9.4,7.2,9.4,7.2z M13.1,6.8V3.9c0.8,0,1.4,0.6,1.4,1.4
	C14.5,6.1,13.9,6.7,13.1,6.8z"/>
</svg>
